<?xml version="1.0" encoding="UTF-8" standalone="no"?>
<!DOCTYPE svg PUBLIC "-//W3C//DTD SVG 1.1//EN"
 "http://www.w3.org/Graphics/SVG/1.1/DTD/svg11.dtd">
<!-- Generated by graphviz version 2.43.0 (0)
 -->
<!-- Title: G Pages: 1 -->
<svg width="219pt" height="795pt"
 viewBox="0.00 0.00 218.50 795.00" xmlns="http://www.w3.org/2000/svg" xmlns:xlink="http://www.w3.org/1999/xlink">
<g id="graph0" class="graph" transform="scale(1 1) rotate(0) translate(4 791)">
<title>G</title>
<polygon fill="white" stroke="transparent" points="-4,4 -4,-791 214.5,-791 214.5,4 -4,4"/>
<!-- n0 -->
<g id="node1" class="node">
<title>n0</title>
<polygon fill="none" stroke="black" points="102,-740.5 102,-786.5 156,-786.5 156,-740.5 102,-740.5"/>
<text text-anchor="middle" x="129" y="-771.3" font-family="Times,serif" font-size="14.00">input</text>
<polyline fill="none" stroke="black" points="102,-763.5 156,-763.5 "/>
<text text-anchor="middle" x="129" y="-748.3" font-family="Times,serif" font-size="14.00">•</text>
</g>
<!-- n1 -->
<g id="node2" class="node">
<title>n1</title>
<g id="a_node2"><a xlink:title="rise">
<polygon fill="#95d16a" stroke="black" points="96.5,-667.5 96.5,-703.5 121.5,-703.5 121.5,-667.5 96.5,-667.5"/>
<text text-anchor="middle" x="109" y="-681.8" font-family="Times,serif" font-size="14.00">⍏</text>
</a>
</g>
</g>
<!-- n0&#45;&gt;n1 -->
<g id="edge2" class="edge">
<title>n0:o0&#45;&gt;n1</title>
<path fill="none" stroke="black" d="M129,-740C129,-730.88 126.42,-721.4 123.11,-713.01"/>
<polygon fill="black" stroke="black" points="126.25,-711.46 119,-703.73 119.85,-714.29 126.25,-711.46"/>
</g>
<!-- n2 -->
<g id="node3" class="node">
<title>n2</title>
<g id="a_node3"><a xlink:title="select">
<polygon fill="#54b0fc" stroke="black" points="90.5,-594.5 90.5,-630.5 169.5,-630.5 169.5,-594.5 90.5,-594.5"/>
<text text-anchor="middle" x="103" y="-608.8" font-family="Times,serif" font-size="14.00">•</text>
<polyline fill="none" stroke="black" points="115.5,-594.5 115.5,-630.5 "/>
<text text-anchor="middle" x="130" y="-608.8" font-family="Times,serif" font-size="14.00">⊏</text>
<polyline fill="none" stroke="black" points="144.5,-594.5 144.5,-630.5 "/>
<text text-anchor="middle" x="157" y="-608.8" font-family="Times,serif" font-size="14.00">•</text>
</a>
</g>
</g>
<!-- n0&#45;&gt;n2 -->
<g id="edge1" class="edge">
<title>n0:o0&#45;&gt;n2:i1</title>
<path fill="none" stroke="black" d="M129,-740C129,-693.6 153.1,-682.53 156.58,-641.23"/>
<polygon fill="black" stroke="black" points="160.09,-641.13 157,-631 153.1,-640.85 160.09,-641.13"/>
</g>
<!-- n1&#45;&gt;n2 -->
<g id="edge3" class="edge">
<title>n1&#45;&gt;n2:i0</title>
<path fill="none" stroke="black" d="M106.07,-667.21C104.96,-659.61 103.84,-650.36 103.31,-641.2"/>
<polygon fill="black" stroke="black" points="106.81,-640.89 103,-631 99.81,-641.1 106.81,-640.89"/>
</g>
<!-- n3 -->
<g id="node4" class="node">
<title>n3</title>
<g id="a_node4"><a xlink:title="length">
<polygon fill="#95d16a" stroke="black" points="72.5,-521.5 72.5,-557.5 101.5,-557.5 101.5,-521.5 72.5,-521.5"/>
<text text-anchor="middle" x="87" y="-535.8" font-family="Times,serif" font-size="14.00">⧻</text>
</a>
</g>
</g>
<!-- n2&#45;&gt;n3 -->
<g id="edge6" class="edge">
<title>n2:o0&#45;&gt;n3</title>
<path fill="none" stroke="black" d="M130,-594C130,-579.19 119.86,-566.14 109.43,-556.65"/>
<polygon fill="black" stroke="black" points="111.49,-553.8 101.56,-550.1 107.01,-559.19 111.49,-553.8"/>
</g>
<!-- n6 -->
<g id="node7" class="node">
<title>n6</title>
<g id="a_node7"><a xlink:title="take">
<polygon fill="#54b0fc" stroke="black" points="34.5,-375.5 34.5,-411.5 113.5,-411.5 113.5,-375.5 34.5,-375.5"/>
<text text-anchor="middle" x="47" y="-389.8" font-family="Times,serif" font-size="14.00">•</text>
<polyline fill="none" stroke="black" points="59.5,-375.5 59.5,-411.5 "/>
<text text-anchor="middle" x="74" y="-389.8" font-family="Times,serif" font-size="14.00">↙</text>
<polyline fill="none" stroke="black" points="88.5,-375.5 88.5,-411.5 "/>
<text text-anchor="middle" x="101" y="-389.8" font-family="Times,serif" font-size="14.00">•</text>
</a>
</g>
</g>
<!-- n2&#45;&gt;n6 -->
<g id="edge5" class="edge">
<title>n2:o0&#45;&gt;n6:i1</title>
<path fill="none" stroke="black" d="M130,-594C130,-575.64 106.69,-460.39 101.87,-421.97"/>
<polygon fill="black" stroke="black" points="105.35,-421.66 101,-412 98.38,-422.27 105.35,-421.66"/>
</g>
<!-- n7 -->
<g id="node8" class="node">
<title>n7</title>
<g id="a_node8"><a xlink:title="drop">
<polygon fill="#54b0fc" stroke="black" points="131.5,-375.5 131.5,-411.5 210.5,-411.5 210.5,-375.5 131.5,-375.5"/>
<text text-anchor="middle" x="144" y="-389.8" font-family="Times,serif" font-size="14.00">•</text>
<polyline fill="none" stroke="black" points="156.5,-375.5 156.5,-411.5 "/>
<text text-anchor="middle" x="171" y="-389.8" font-family="Times,serif" font-size="14.00">↘</text>
<polyline fill="none" stroke="black" points="185.5,-375.5 185.5,-411.5 "/>
<text text-anchor="middle" x="198" y="-389.8" font-family="Times,serif" font-size="14.00">•</text>
</a>
</g>
</g>
<!-- n2&#45;&gt;n7 -->
<g id="edge4" class="edge">
<title>n2:o0&#45;&gt;n7:i1</title>
<path fill="none" stroke="black" d="M130,-594C130,-576.83 137.91,-574.05 144,-558 167.29,-496.6 195.02,-482.55 197.78,-422.11"/>
<polygon fill="black" stroke="black" points="201.28,-422.07 198,-412 194.28,-421.92 201.28,-422.07"/>
</g>
<!-- n5 -->
<g id="node6" class="node">
<title>n5</title>
<g id="a_node6"><a xlink:title="divide">
<polygon fill="#54b0fc" stroke="black" points="17.5,-448.5 17.5,-484.5 96.5,-484.5 96.5,-448.5 17.5,-448.5"/>
<text text-anchor="middle" x="30" y="-462.8" font-family="Times,serif" font-size="14.00">•</text>
<polyline fill="none" stroke="black" points="42.5,-448.5 42.5,-484.5 "/>
<text text-anchor="middle" x="57" y="-462.8" font-family="Times,serif" font-size="14.00">÷</text>
<polyline fill="none" stroke="black" points="71.5,-448.5 71.5,-484.5 "/>
<text text-anchor="middle" x="84" y="-462.8" font-family="Times,serif" font-size="14.00">•</text>
</a>
</g>
</g>
<!-- n3&#45;&gt;n5 -->
<g id="edge7" class="edge">
<title>n3&#45;&gt;n5:i1</title>
<path fill="none" stroke="black" d="M85.54,-521.17C84.98,-513.56 84.42,-504.3 84.16,-495.16"/>
<polygon fill="black" stroke="black" points="87.65,-494.94 84,-485 80.66,-495.05 87.65,-494.94"/>
</g>
<!-- n4 -->
<g id="node5" class="node">
<title>n4</title>
<polygon fill="#ff8855" stroke="black" points="0,-521.5 0,-557.5 54,-557.5 54,-521.5 0,-521.5"/>
<text text-anchor="middle" x="27" y="-535.8" font-family="Times,serif" font-size="14.00">2</text>
</g>
<!-- n4&#45;&gt;n5 -->
<g id="edge8" class="edge">
<title>n4:o0&#45;&gt;n5:i0</title>
<path fill="none" stroke="black" d="M28.5,-521.35C29.04,-513.65 29.59,-504.35 29.85,-495.19"/>
<polygon fill="black" stroke="black" points="33.35,-495.05 30,-485 26.35,-494.95 33.35,-495.05"/>
</g>
<!-- n5&#45;&gt;n6 -->
<g id="edge10" class="edge">
<title>n5:o0&#45;&gt;n6:i0</title>
<path fill="none" stroke="black" d="M57,-448C57,-435.42 51.26,-430.77 48.48,-422.03"/>
<polygon fill="black" stroke="black" points="51.92,-421.38 47,-412 44.99,-422.4 51.92,-421.38"/>
</g>
<!-- n5&#45;&gt;n7 -->
<g id="edge9" class="edge">
<title>n5:o0&#45;&gt;n7:i0</title>
<path fill="none" stroke="black" d="M57,-448C57,-410.24 127.84,-445.39 141.67,-421.86"/>
<polygon fill="black" stroke="black" points="145.11,-422.54 144,-412 138.3,-420.93 145.11,-422.54"/>
</g>
<!-- n8 -->
<g id="node9" class="node">
<title>n8</title>
<g id="a_node9"><a xlink:title="reverse">
<polygon fill="#95d16a" stroke="black" points="80.5,-302.5 80.5,-338.5 109.5,-338.5 109.5,-302.5 80.5,-302.5"/>
<text text-anchor="middle" x="95" y="-316.8" font-family="Times,serif" font-size="14.00">⇌</text>
</a>
</g>
</g>
<!-- n6&#45;&gt;n8 -->
<g id="edge11" class="edge">
<title>n6:o0&#45;&gt;n8</title>
<path fill="none" stroke="black" d="M74,-375C74,-365.82 76.71,-356.33 80.19,-347.94"/>
<polygon fill="black" stroke="black" points="83.45,-349.21 84.5,-338.67 77.11,-346.26 83.45,-349.21"/>
</g>
<!-- n9 -->
<g id="node10" class="node">
<title>n9</title>
<g id="a_node10"><a xlink:title="add">
<polygon fill="#54b0fc" stroke="black" points="93.5,-229.5 93.5,-265.5 172.5,-265.5 172.5,-229.5 93.5,-229.5"/>
<text text-anchor="middle" x="106" y="-243.8" font-family="Times,serif" font-size="14.00">•</text>
<polyline fill="none" stroke="black" points="118.5,-229.5 118.5,-265.5 "/>
<text text-anchor="middle" x="133" y="-243.8" font-family="Times,serif" font-size="14.00">+</text>
<polyline fill="none" stroke="black" points="147.5,-229.5 147.5,-265.5 "/>
<text text-anchor="middle" x="160" y="-243.8" font-family="Times,serif" font-size="14.00">•</text>
</a>
</g>
</g>
<!-- n7&#45;&gt;n9 -->
<g id="edge12" class="edge">
<title>n7:o0&#45;&gt;n9:i1</title>
<path fill="none" stroke="black" d="M171,-375C171,-329.83 161.53,-316.56 160.16,-276"/>
<polygon fill="black" stroke="black" points="163.66,-275.94 160,-266 156.66,-276.06 163.66,-275.94"/>
</g>
<!-- n8&#45;&gt;n9 -->
<g id="edge13" class="edge">
<title>n8&#45;&gt;n9:i0</title>
<path fill="none" stroke="black" d="M100.37,-302.34C102.42,-294.69 104.5,-285.33 105.45,-276.01"/>
<polygon fill="black" stroke="black" points="108.95,-276.18 106,-266 101.96,-275.79 108.95,-276.18"/>
</g>
<!-- n10 -->
<g id="node11" class="node">
<title>n10</title>
<polygon fill="none" stroke="black" points="79.5,-156.5 79.5,-192.5 186.5,-192.5 186.5,-156.5 79.5,-156.5"/>
<text text-anchor="middle" x="133" y="-170.8" font-family="Times,serif" font-size="14.00">Reduce(Min)</text>
</g>
<!-- n9&#45;&gt;n10 -->
<g id="edge14" class="edge">
<title>n9:o0&#45;&gt;n10:i0</title>
<path fill="none" stroke="black" d="M133,-229C133,-220.48 133,-211.22 133,-202.79"/>
<polygon fill="black" stroke="black" points="136.5,-202.67 133,-192.67 129.5,-202.67 136.5,-202.67"/>
</g>
<!-- n12 -->
<g id="node13" class="node">
<title>n12</title>
<g id="a_node13"><a xlink:title="divide">
<polygon fill="#54b0fc" stroke="black" points="43.5,-83.5 43.5,-119.5 122.5,-119.5 122.5,-83.5 43.5,-83.5"/>
<text text-anchor="middle" x="56" y="-97.8" font-family="Times,serif" font-size="14.00">•</text>
<polyline fill="none" stroke="black" points="68.5,-83.5 68.5,-119.5 "/>
<text text-anchor="middle" x="83" y="-97.8" font-family="Times,serif" font-size="14.00">÷</text>
<polyline fill="none" stroke="black" points="97.5,-83.5 97.5,-119.5 "/>
<text text-anchor="middle" x="110" y="-97.8" font-family="Times,serif" font-size="14.00">•</text>
</a>
</g>
</g>
<!-- n10&#45;&gt;n12 -->
<g id="edge15" class="edge">
<title>n10:o0&#45;&gt;n12:i1</title>
<path fill="none" stroke="black" d="M120.96,-156.13C116.87,-148.63 112.88,-139.53 111.04,-130.18"/>
<polygon fill="black" stroke="black" points="114.5,-129.59 110,-120 107.54,-130.31 114.5,-129.59"/>
</g>
<!-- n11 -->
<g id="node12" class="node">
<title>n11</title>
<polygon fill="#ff8855" stroke="black" points="7,-156.5 7,-192.5 61,-192.5 61,-156.5 7,-156.5"/>
<text text-anchor="middle" x="34" y="-170.8" font-family="Times,serif" font-size="14.00">2</text>
</g>
<!-- n11&#45;&gt;n12 -->
<g id="edge16" class="edge">
<title>n11:o0&#45;&gt;n12:i0</title>
<path fill="none" stroke="black" d="M45.52,-156.06C49.42,-148.55 53.25,-139.45 55,-130.13"/>
<polygon fill="black" stroke="black" points="58.5,-130.3 56,-120 51.54,-129.61 58.5,-130.3"/>
</g>
<!-- n13 -->
<g id="node14" class="node">
<title>n13</title>
<polygon fill="none" stroke="black" points="51,-0.5 51,-46.5 115,-46.5 115,-0.5 51,-0.5"/>
<text text-anchor="middle" x="83" y="-31.3" font-family="Times,serif" font-size="14.00">•</text>
<polyline fill="none" stroke="black" points="51,-23.5 115,-23.5 "/>
<text text-anchor="middle" x="83" y="-8.3" font-family="Times,serif" font-size="14.00">output</text>
</g>
<!-- n12&#45;&gt;n13 -->
<g id="edge17" class="edge">
<title>n12:o0&#45;&gt;n13:i0</title>
<path fill="none" stroke="black" d="M83,-83C83,-71 83,-65.75 83,-57.12"/>
<polygon fill="black" stroke="black" points="86.5,-57 83,-47 79.5,-57 86.5,-57"/>
</g>
</g>
</svg>
